<?xml version="1.0" encoding="UTF-8"?>
<svg xmlns="http://www.w3.org/2000/svg" viewBox="0 0 1080 1920">
  <g id="a" data-name="Layer 4">
    <rect x="0" width="1080" height="1920" style="fill: #72bf44;"/>
  </g>
  <g id="c" data-name="Layer 1">
    <rect x="0" y="1799" width="730.333" height="58" style="fill: #bfd730;"/>
    <path d="M607.742,1715c-10.842,0-20.855,5.803-26.245,15.21l-42.885,74.845c-7.422,12.954-21.21,20.945-36.14,20.945H0v94h1080v-205h-472.258Z" style="fill: #003d43;"/>
    <rect width="1080" height="70" style="fill: #003d43;"/>
  </g>
  <g id="d" data-name="Layer 2">
    <g>
      <path d="M642.273,1763.426c-.73.067-1.459.271-2.132.663-1.615.932-2.522,2.625-2.522,4.373,0,.762.177,1.531.535,2.256l24.86,43.206,8.061-13.946h0l13.12-22.653-8.052-13.899h-33.87Z" style="fill: #72bf44;"/>
      <path d="M676.143,1763.426l21.155,36.553h16.064l16.899-29.361c.308-.643.505-1.376.505-2.155,0-2.677-2.118-4.869-4.778-5.037h-49.845Z" style="fill: #00ae9d;"/>
      <path d="M712.173,1799.979h-41.099l-8.061,13.946,17.02,29.312c.409.609.952,1.139,1.615,1.528.799.456,1.664.675,2.532.675,1.647,0,3.259-.831,4.228-2.293l24.953-43.169h-1.188Z" style="fill: #bfd730;"/>
    </g>
    <path d="M758.459,1799.113c-6.93-2.598-9.868-3.658-9.868-6.427,0-2.433,2.463-4.063,6.937-4.063,5.456,0,10.882,2.022,11.883,2.601,2.073-5.626,3.269-14.575-11.72-14.575-13.825,0-22.059,7.492-22.059,17.188,0,8.131,6.195,13.175,15.47,16.503,6.183,2.125,8.621,3.602,8.621,6.286,0,2.769-2.438,4.467-7.499,4.467-5.522,0-10.899-1.699-14.22-3.415l-2.773,12.122c3.086,1.629,9.518,3.343,16.108,3.343,16.042,0,23.356-8.059,23.356-17.504,0-7.642-4.376-12.859-14.234-16.527h0ZM779.862,1777.481v54.835h14.728v-45.881c0-6.883-3.737-8.954-14.728-8.954h0ZM842.882,1819.378c-2.295.9-6.286,1.546-9.78,1.546-10.095,0-16.024-6.2-16.024-16.121,0-11.148,7.305-16.113,15.704-16.113,4.391,0,8.927,1.292,10.167,1.955,2.598-5.929,1.97-13.995-10.82-13.995-16.357,0-30.523,9.836-30.523,29.122,0,14.592,9.035,27.357,29.554,27.357,6.523,0,11.722-1.225,13.744-2.275l-2.021-11.476h0ZM932.806,1821.587l-.153-.017c-7.073,0-11.471-6.829-11.38-16.68,0-9.523,4.307-16.692,11.38-16.692,7.169,0,11.399,7.169,11.399,16.606,0,9.938-4.147,16.784-11.247,16.784h0ZM959.593,1804.31c0-14.634-8.951-27.749-26.618-27.749h-.323c-16.653.173-26.94,12.812-26.94,28.651,0,15.218,9.361,27.998,26.381,27.998h.56c16.562-.219,26.941-11.404,26.941-28.9h0ZM984.7,1822.129c-.629.069-1.25.104-1.876.104-1.879,0-3.18,0-4.245-.17v-13.098h3.496c.917,0,1.782.034,2.625.136,4.186.527,7.152,2.414,7.152,6.286,0,4.245-3.143,6.284-7.152,6.743h0ZM978.578,1787.963c.984-.168,2.367-.34,4.802-.34.441,0,.895.032,1.319.069,4.083.323,6.097,2.256,6.097,5.148,0,2.85-1.992,4.83-6.097,5.475-.969.136-2.012.222-3.183.222h-2.939v-10.574h0ZM996.572,1802.681v-.153c6.437-2.445,8.951-6.92,8.951-11.473,0-5.369-3.091-9.277-7.406-11.311-3.602-1.802-7.541-2.485-13.419-2.65-1.07-.039-2.164-.039-3.353-.039-6.745,0-13.99.564-17.336,1.208v53.731c2.939.577,7.813.981,14.498.981,2.216,0,4.287-.064,6.19-.205,8.034-.542,13.13-2.187,16.426-4.677,3.668-2.769,6.183-6.846,6.183-12.06,0-6.506-4.06-11.483-10.736-13.352h0ZM874.221,1821.587l-.17-.017c-7.083,0-11.483-6.846-11.397-16.68,0-9.523,4.314-16.692,11.397-16.692,7.169,0,11.397,7.169,11.397,16.606,0,9.938-4.161,16.784-11.227,16.784h0ZM874.373,1776.561h-.323c-16.663.173-26.94,12.812-26.94,28.651,0,15.218,9.361,27.998,26.363,27.998h.577c16.562-.219,26.94-11.404,26.94-28.9,0-14.634-8.951-27.749-26.618-27.749h0Z" style="fill: #fff;"/>
    <path d="M888.491,1867.016c-1.299.609-3.41,1.015-5.439,1.015-6.008,0-9.54-3.857-9.54-9.864,0-6.576,4.019-10.067,9.58-10.067,2.273,0,4.059.487,5.358,1.055l1.096-3.978c-1.015-.528-3.369-1.218-6.657-1.218-8.362,0-14.614,5.44-14.614,14.451,0,8.322,5.277,13.761,13.964,13.761,3.288,0,5.886-.609,7.063-1.218l-.812-3.937h0ZM893.24,1871.766h4.993v-10.23c0-.568.081-1.096.162-1.542.447-2.233,2.07-3.775,4.465-3.775.609,0,1.055.081,1.461.162v-4.709c-.406-.081-.69-.122-1.177-.122-2.111,0-4.425,1.421-5.399,4.222h-.162l-.162-3.775h-4.344c.122,1.786.162,3.694.162,6.373v13.396h0ZM924.092,1863.282c.081-.447.162-1.177.162-2.111,0-4.344-2.111-9.621-8.525-9.621-6.333,0-9.661,5.155-9.661,10.636,0,6.048,3.775,9.986,10.189,9.986,2.842,0,5.196-.528,6.901-1.218l-.731-3.451c-1.502.568-3.166.893-5.48.893-3.166,0-5.967-1.542-6.089-5.115h13.234ZM910.858,1859.791c.203-2.03,1.502-4.831,4.587-4.831,3.329,0,4.14,3.004,4.1,4.831h-8.687ZM941.506,1842.944v11.204h-.081c-.893-1.461-2.842-2.598-5.561-2.598-4.749,0-8.89,3.937-8.849,10.554,0,6.089,3.735,10.108,8.443,10.108,2.882,0,5.277-1.38,6.454-3.572h.081l.203,3.126h4.465c-.081-1.34-.162-3.532-.162-5.561v-23.26h-4.993ZM941.506,1863.201c0,.528-.041,1.015-.162,1.461-.487,2.151-2.273,3.532-4.303,3.532-3.166,0-4.952-2.639-4.952-6.251,0-3.694,1.786-6.536,4.993-6.536,2.273,0,3.856,1.583,4.303,3.532.081.406.122.893.122,1.299v2.963h0ZM956.891,1871.766v-19.769h-5.034v19.769h5.034ZM954.375,1843.756c-1.664,0-2.801,1.177-2.801,2.72,0,1.502,1.096,2.679,2.76,2.679,1.746,0,2.842-1.177,2.842-2.679-.041-1.542-1.096-2.72-2.801-2.72h0ZM961.032,1870.792c1.461.812,3.613,1.38,6.008,1.38,5.237,0,8.037-2.598,8.037-6.17-.041-2.923-1.705-4.749-5.277-6.048-2.517-.893-3.451-1.502-3.451-2.76,0-1.218.974-2.07,2.76-2.07,1.745,0,3.329.649,4.181,1.137l.974-3.532c-1.137-.609-3.044-1.177-5.237-1.177-4.587,0-7.469,2.72-7.469,6.211-.041,2.314,1.583,4.425,5.439,5.764,2.436.853,3.248,1.543,3.248,2.882,0,1.299-.974,2.192-3.166,2.192-1.786,0-3.938-.731-5.074-1.421l-.974,3.613h0ZM996.876,1851.997h-4.993v11.935c0,.568-.122,1.096-.284,1.542-.528,1.258-1.827,2.679-3.816,2.679-2.639,0-3.694-2.111-3.694-5.399v-10.757h-4.993v11.61c0,6.454,3.288,8.606,6.901,8.606,3.532,0,5.48-2.03,6.333-3.451h.081l.244,3.004h4.384c-.081-1.624-.162-3.572-.162-5.927v-13.842h0ZM1002.275,1871.766h5.034v-28.822h-5.034v28.822h0Z" style="fill: #00ae9d;"/>
  </g>
</svg>