<?xml version="1.0" encoding="UTF-8"?>
<svg xmlns="http://www.w3.org/2000/svg" xmlns:xlink="http://www.w3.org/1999/xlink" viewBox="0 0 636 636">
  <defs>
    <linearGradient id="d" x1="0" y1="318" x2="636" y2="318" gradientUnits="userSpaceOnUse">
      <stop offset="0" stop-color="#49479d"/>
      <stop offset=".319" stop-color="#464498"/>
      <stop offset=".657" stop-color="#403d8c"/>
      <stop offset=".9" stop-color="#3a357e"/>
    </linearGradient>
    <linearGradient id="f" x1="400.468" y1="430.91" x2="57.432" y2="-29.697" gradientTransform="translate(4.832 -4.984) rotate(.864)" xlink:href="#d"/>
  </defs>
  <g id="c" data-name="Layer 1">
    <rect width="636" height="636" style="fill: url(#d);"/>
  </g>
  <g id="e" data-name="Layer 2">
    <path d="M143.016,586.673L50.364,53.879c-4.135-23.781,19.045-43.107,41.695-34.762l508.856,187.502c22.649,8.346,27.748,38.092,9.171,53.504l-416.204,345.293c-18.525,15.369-46.741,4.972-50.865-18.743Z" style="fill: url(#f);"/>
    <path d="M213.832,645.629L-44.03,137.191c-11.509-22.694,5.89-49.33,31.296-47.909l570.791,31.913c25.406,1.42,39.728,29.83,25.76,51.099l-312.93,476.524c-13.928,21.21-45.579,19.44-57.056-3.19Z" style="fill: none; stroke: #fff; stroke-miterlimit: 10; stroke-width: 1.998px;"/>
    <g>
      <g>
        <g>
          <g>
            <path d="M58.53,344.041h18.113l20.802,48.147,20.335-48.147h18.113l11.687,75.961h-21.27l-5.142-42.771-15.66,37.98h-16.594l-15.66-38.799-5.259,43.59h-21.152l11.687-75.961Z" style="fill: none; stroke: #003d43; stroke-linecap: round; stroke-linejoin: round; stroke-width: 4.399px;"/>
            <path d="M160.551,344.041h53.991v17.179h-33.189v12.153h29.684v17.296h-29.684v12.037h33.189v17.296h-53.991v-75.961Z" style="fill: none; stroke: #003d43; stroke-linecap: round; stroke-linejoin: round; stroke-width: 4.399px;"/>
            <path d="M237.447,344.041h18.113l20.802,48.147,20.335-48.147h18.113l11.687,75.961h-21.27l-5.142-42.771-15.66,37.98h-16.594l-15.66-38.799-5.259,43.59h-21.152l11.687-75.961Z" style="fill: none; stroke: #003d43; stroke-linecap: round; stroke-linejoin: round; stroke-width: 4.399px;"/>
            <path d="M351.914,416.437c-5.649-3.155-10.108-7.692-13.381-13.614-3.271-5.92-4.908-12.855-4.908-20.802,0-7.868,1.637-14.764,4.908-20.685,3.272-5.92,7.731-10.478,13.381-13.673,5.648-3.194,12.018-4.792,19.107-4.792,7.167,0,13.574,1.539,19.225,4.616,5.647,3.079,10.088,7.558,13.322,13.439,3.231,5.883,4.85,12.913,4.85,21.094,0,7.946-1.636,14.882-4.908,20.802-3.272,5.922-7.733,10.459-13.381,13.614-5.649,3.155-12.019,4.733-19.107,4.733s-13.459-1.578-19.107-4.733ZM379.202,400.894c2.414-1.596,4.342-3.991,5.784-7.187,1.441-3.194,2.162-7.167,2.162-11.92,0-4.362-.701-8.141-2.104-11.336-1.402-3.194-3.33-5.609-5.784-7.246-2.454-1.636-5.2-2.454-8.239-2.454-2.962,0-5.668.8-8.122,2.396-2.454,1.598-4.382,4.013-5.784,7.245-1.402,3.233-2.104,7.11-2.104,11.628,0,4.675.701,8.609,2.104,11.803,1.402,3.196,3.311,5.571,5.726,7.129,2.414,1.56,5.143,2.337,8.181,2.337s5.765-.798,8.181-2.396ZM374.06,319.85h20.567l-18.113,17.646h-16.011l13.557-17.646Z" style="fill: none; stroke: #003d43; stroke-linecap: round; stroke-linejoin: round; stroke-width: 4.399px;"/>
            <path d="M420.337,344.041h29.099c6.466,0,12.056,1.11,16.771,3.33,4.713,2.221,8.315,5.279,10.81,9.174,2.492,3.896,3.739,8.298,3.739,13.206,0,5.142-1.363,9.583-4.09,13.322-2.728,3.739-6.214,6.564-10.459,8.473-4.247,1.91-8.59,2.863-13.03,2.863h-2.571l3.389-3.39c3.816.936,6.896,1.969,9.232,3.098,2.338,1.13,4.4,2.553,6.194,4.265,1.791,1.715,3.739,4.091,5.843,7.129l10.284,14.491h-24.425l-16.595-24.775h-3.856v24.775h-20.334v-75.961ZM453.585,378.807c1.829-.739,3.271-1.85,4.323-3.331,1.052-1.479,1.578-3.349,1.578-5.609,0-2.024-.526-3.758-1.578-5.2-1.052-1.44-2.494-2.53-4.323-3.272-1.832-.739-3.915-1.109-6.253-1.109h-6.661v19.633h6.661c2.338,0,4.421-.369,6.253-1.11Z" style="fill: none; stroke: #003d43; stroke-linecap: round; stroke-linejoin: round; stroke-width: 4.399px;"/>
            <path d="M495.478,344.041h21.27v75.961h-21.27v-75.961Z" style="fill: none; stroke: #003d43; stroke-linecap: round; stroke-linejoin: round; stroke-width: 4.399px;"/>
            <path d="M556.248,344.041h18.113l29.566,75.961h-22.438l-4.09-12.504h-25.594l-4.207,12.504h-20.918l29.566-75.961ZM572.258,391.254l-7.362-22.555-7.596,22.555h14.958Z" style="fill: none; stroke: #003d43; stroke-linecap: round; stroke-linejoin: round; stroke-width: 4.399px;"/>
          </g>
          <g>
            <path d="M57.797,343.308h18.113l20.802,48.147,20.335-48.147h18.113l11.687,75.961h-21.27l-5.142-42.771-15.66,37.98h-16.594l-15.66-38.799-5.259,43.59h-21.152l11.687-75.961Z" style="fill: none; stroke: #003d43; stroke-linecap: round; stroke-linejoin: round; stroke-width: 4.399px;"/>
            <path d="M159.817,343.308h53.991v17.179h-33.189v12.153h29.684v17.296h-29.684v12.037h33.189v17.296h-53.991v-75.961Z" style="fill: none; stroke: #003d43; stroke-linecap: round; stroke-linejoin: round; stroke-width: 4.399px;"/>
            <path d="M236.714,343.308h18.113l20.802,48.147,20.335-48.147h18.113l11.687,75.961h-21.27l-5.142-42.771-15.66,37.98h-16.594l-15.66-38.799-5.259,43.59h-21.152l11.687-75.961Z" style="fill: none; stroke: #003d43; stroke-linecap: round; stroke-linejoin: round; stroke-width: 4.399px;"/>
            <path d="M351.181,415.704c-5.649-3.155-10.108-7.692-13.381-13.614-3.271-5.92-4.908-12.855-4.908-20.802,0-7.868,1.637-14.764,4.908-20.685,3.272-5.92,7.731-10.478,13.381-13.673,5.648-3.194,12.018-4.792,19.107-4.792,7.167,0,13.574,1.539,19.225,4.616,5.647,3.079,10.088,7.558,13.322,13.439,3.231,5.883,4.85,12.913,4.85,21.094,0,7.946-1.636,14.882-4.908,20.802-3.272,5.922-7.733,10.459-13.381,13.614-5.649,3.155-12.019,4.733-19.107,4.733s-13.459-1.578-19.107-4.733ZM378.469,400.161c2.414-1.596,4.342-3.991,5.784-7.187,1.441-3.194,2.162-7.167,2.162-11.92,0-4.362-.701-8.141-2.104-11.336-1.402-3.194-3.33-5.609-5.784-7.246-2.454-1.636-5.2-2.454-8.239-2.454-2.962,0-5.668.8-8.122,2.396-2.454,1.598-4.382,4.013-5.784,7.245-1.402,3.233-2.104,7.11-2.104,11.628,0,4.675.701,8.609,2.104,11.803,1.402,3.196,3.311,5.571,5.726,7.129,2.414,1.56,5.143,2.337,8.181,2.337s5.765-.798,8.181-2.396ZM373.327,319.117h20.567l-18.113,17.646h-16.011l13.557-17.646Z" style="fill: none; stroke: #003d43; stroke-linecap: round; stroke-linejoin: round; stroke-width: 4.399px;"/>
            <path d="M419.604,343.308h29.099c6.466,0,12.056,1.11,16.771,3.33,4.713,2.221,8.315,5.279,10.81,9.174,2.492,3.896,3.739,8.298,3.739,13.206,0,5.142-1.363,9.583-4.09,13.322-2.728,3.739-6.214,6.564-10.459,8.473-4.247,1.91-8.59,2.863-13.03,2.863h-2.571l3.389-3.39c3.816.936,6.896,1.969,9.232,3.098,2.338,1.13,4.4,2.553,6.194,4.265,1.791,1.715,3.739,4.091,5.843,7.129l10.284,14.491h-24.425l-16.595-24.775h-3.856v24.775h-20.334v-75.961ZM452.852,378.074c1.829-.739,3.271-1.85,4.323-3.331,1.052-1.479,1.578-3.349,1.578-5.609,0-2.024-.526-3.758-1.578-5.2-1.052-1.44-2.494-2.53-4.323-3.272-1.832-.739-3.915-1.109-6.253-1.109h-6.661v19.633h6.661c2.338,0,4.421-.369,6.253-1.11Z" style="fill: none; stroke: #003d43; stroke-linecap: round; stroke-linejoin: round; stroke-width: 4.399px;"/>
            <path d="M494.745,343.308h21.27v75.961h-21.27v-75.961Z" style="fill: none; stroke: #003d43; stroke-linecap: round; stroke-linejoin: round; stroke-width: 4.399px;"/>
            <path d="M555.515,343.308h18.113l29.566,75.961h-22.438l-4.09-12.504h-25.594l-4.207,12.504h-20.918l29.566-75.961ZM571.524,390.521l-7.362-22.555-7.596,22.555h14.958Z" style="fill: none; stroke: #003d43; stroke-linecap: round; stroke-linejoin: round; stroke-width: 4.399px;"/>
          </g>
          <g>
            <path d="M57.064,342.575h18.113l20.802,48.147,20.335-48.147h18.113l11.687,75.961h-21.27l-5.142-42.771-15.66,37.98h-16.594l-15.66-38.799-5.259,43.59h-21.152l11.687-75.961Z" style="fill: none; stroke: #003d43; stroke-linecap: round; stroke-linejoin: round; stroke-width: 4.399px;"/>
            <path d="M159.084,342.575h53.991v17.179h-33.189v12.153h29.684v17.296h-29.684v12.037h33.189v17.296h-53.991v-75.961Z" style="fill: none; stroke: #003d43; stroke-linecap: round; stroke-linejoin: round; stroke-width: 4.399px;"/>
            <path d="M235.981,342.575h18.113l20.802,48.147,20.335-48.147h18.113l11.687,75.961h-21.27l-5.142-42.771-15.66,37.98h-16.594l-15.66-38.799-5.259,43.59h-21.152l11.687-75.961Z" style="fill: none; stroke: #003d43; stroke-linecap: round; stroke-linejoin: round; stroke-width: 4.399px;"/>
            <path d="M350.448,414.971c-5.649-3.155-10.108-7.692-13.381-13.614-3.271-5.92-4.908-12.855-4.908-20.802,0-7.868,1.637-14.764,4.908-20.685,3.272-5.92,7.731-10.478,13.381-13.673,5.648-3.194,12.018-4.792,19.107-4.792,7.167,0,13.574,1.539,19.225,4.616,5.647,3.079,10.088,7.558,13.322,13.439,3.231,5.883,4.85,12.913,4.85,21.094,0,7.946-1.636,14.882-4.908,20.802-3.272,5.922-7.733,10.459-13.381,13.614-5.649,3.155-12.019,4.733-19.107,4.733s-13.459-1.578-19.107-4.733ZM377.736,399.428c2.414-1.596,4.342-3.991,5.784-7.187,1.441-3.194,2.162-7.167,2.162-11.92,0-4.362-.701-8.141-2.104-11.336-1.402-3.194-3.33-5.609-5.784-7.246-2.454-1.636-5.2-2.454-8.239-2.454-2.962,0-5.668.8-8.122,2.396-2.454,1.598-4.382,4.013-5.784,7.245-1.402,3.233-2.104,7.11-2.104,11.628,0,4.675.701,8.609,2.104,11.803,1.402,3.196,3.311,5.571,5.726,7.129,2.414,1.56,5.143,2.337,8.181,2.337s5.765-.798,8.181-2.396ZM372.594,318.384h20.567l-18.113,17.646h-16.011l13.557-17.646Z" style="fill: none; stroke: #003d43; stroke-linecap: round; stroke-linejoin: round; stroke-width: 4.399px;"/>
            <path d="M418.87,342.575h29.099c6.466,0,12.056,1.11,16.771,3.33,4.713,2.221,8.315,5.279,10.81,9.174,2.492,3.896,3.739,8.298,3.739,13.206,0,5.142-1.363,9.583-4.09,13.322-2.728,3.739-6.214,6.564-10.459,8.473-4.247,1.91-8.59,2.863-13.03,2.863h-2.571l3.389-3.39c3.816.936,6.896,1.969,9.232,3.098,2.338,1.13,4.4,2.553,6.194,4.265,1.791,1.715,3.739,4.091,5.843,7.129l10.284,14.491h-24.425l-16.595-24.775h-3.856v24.775h-20.334v-75.961ZM452.118,377.341c1.829-.739,3.271-1.85,4.323-3.331,1.052-1.479,1.578-3.349,1.578-5.609,0-2.024-.526-3.758-1.578-5.2-1.052-1.44-2.494-2.53-4.323-3.272-1.832-.739-3.915-1.109-6.253-1.109h-6.661v19.633h6.661c2.338,0,4.421-.369,6.253-1.11Z" style="fill: none; stroke: #003d43; stroke-linecap: round; stroke-linejoin: round; stroke-width: 4.399px;"/>
            <path d="M494.012,342.575h21.27v75.961h-21.27v-75.961Z" style="fill: none; stroke: #003d43; stroke-linecap: round; stroke-linejoin: round; stroke-width: 4.399px;"/>
            <path d="M554.782,342.575h18.113l29.566,75.961h-22.438l-4.09-12.504h-25.594l-4.207,12.504h-20.918l29.566-75.961ZM570.791,389.787l-7.362-22.555-7.596,22.555h14.958Z" style="fill: none; stroke: #003d43; stroke-linecap: round; stroke-linejoin: round; stroke-width: 4.399px;"/>
          </g>
          <g>
            <path d="M56.331,341.841h18.113l20.802,48.147,20.335-48.147h18.113l11.687,75.961h-21.27l-5.142-42.771-15.66,37.98h-16.594l-15.66-38.799-5.259,43.59h-21.152l11.687-75.961Z" style="fill: none; stroke: #003d43; stroke-linecap: round; stroke-linejoin: round; stroke-width: 4.399px;"/>
            <path d="M158.351,341.841h53.991v17.179h-33.189v12.153h29.684v17.296h-29.684v12.037h33.189v17.296h-53.991v-75.961Z" style="fill: none; stroke: #003d43; stroke-linecap: round; stroke-linejoin: round; stroke-width: 4.399px;"/>
            <path d="M235.248,341.841h18.113l20.802,48.147,20.335-48.147h18.113l11.687,75.961h-21.27l-5.142-42.771-15.66,37.98h-16.594l-15.66-38.799-5.259,43.59h-21.152l11.687-75.961Z" style="fill: none; stroke: #003d43; stroke-linecap: round; stroke-linejoin: round; stroke-width: 4.399px;"/>
            <path d="M349.714,414.238c-5.649-3.155-10.108-7.692-13.381-13.614-3.271-5.92-4.908-12.855-4.908-20.802,0-7.868,1.637-14.764,4.908-20.685,3.272-5.92,7.731-10.478,13.381-13.673,5.648-3.194,12.018-4.792,19.107-4.792,7.167,0,13.574,1.539,19.225,4.616,5.647,3.079,10.088,7.558,13.322,13.439,3.231,5.883,4.85,12.913,4.85,21.094,0,7.946-1.636,14.882-4.908,20.802-3.272,5.922-7.733,10.459-13.381,13.614-5.649,3.155-12.019,4.733-19.107,4.733s-13.459-1.578-19.107-4.733ZM377.003,398.695c2.414-1.596,4.342-3.991,5.784-7.187,1.441-3.194,2.162-7.167,2.162-11.92,0-4.362-.701-8.141-2.104-11.336-1.402-3.194-3.33-5.609-5.784-7.246-2.454-1.636-5.2-2.454-8.239-2.454-2.962,0-5.668.8-8.122,2.396-2.454,1.598-4.382,4.013-5.784,7.245-1.402,3.233-2.104,7.11-2.104,11.628,0,4.675.701,8.609,2.104,11.803,1.402,3.196,3.311,5.571,5.726,7.129,2.414,1.56,5.143,2.337,8.181,2.337s5.765-.798,8.181-2.396ZM371.861,317.651h20.567l-18.113,17.646h-16.011l13.557-17.646Z" style="fill: none; stroke: #003d43; stroke-linecap: round; stroke-linejoin: round; stroke-width: 4.399px;"/>
            <path d="M418.137,341.841h29.099c6.466,0,12.056,1.11,16.771,3.33,4.713,2.221,8.315,5.279,10.81,9.174,2.492,3.896,3.739,8.298,3.739,13.206,0,5.142-1.363,9.583-4.09,13.322-2.728,3.739-6.214,6.564-10.459,8.473-4.247,1.91-8.59,2.863-13.03,2.863h-2.571l3.389-3.39c3.816.936,6.896,1.969,9.232,3.098,2.338,1.13,4.4,2.553,6.194,4.265,1.791,1.715,3.739,4.091,5.843,7.129l10.284,14.491h-24.425l-16.595-24.775h-3.856v24.775h-20.334v-75.961ZM451.385,376.608c1.829-.739,3.271-1.85,4.323-3.331,1.052-1.479,1.578-3.349,1.578-5.609,0-2.024-.526-3.758-1.578-5.2-1.052-1.44-2.494-2.53-4.323-3.272-1.832-.739-3.915-1.109-6.253-1.109h-6.661v19.633h6.661c2.338,0,4.421-.369,6.253-1.11Z" style="fill: none; stroke: #003d43; stroke-linecap: round; stroke-linejoin: round; stroke-width: 4.399px;"/>
            <path d="M493.279,341.841h21.27v75.961h-21.27v-75.961Z" style="fill: none; stroke: #003d43; stroke-linecap: round; stroke-linejoin: round; stroke-width: 4.399px;"/>
            <path d="M554.048,341.841h18.113l29.566,75.961h-22.438l-4.09-12.504h-25.594l-4.207,12.504h-20.918l29.566-75.961ZM570.058,389.054l-7.362-22.555-7.596,22.555h14.958Z" style="fill: none; stroke: #003d43; stroke-linecap: round; stroke-linejoin: round; stroke-width: 4.399px;"/>
          </g>
          <g>
            <path d="M55.598,341.108h18.113l20.802,48.147,20.335-48.147h18.113l11.687,75.961h-21.27l-5.142-42.771-15.66,37.98h-16.594l-15.66-38.799-5.259,43.59h-21.152l11.687-75.961Z" style="fill: none; stroke: #003d43; stroke-linecap: round; stroke-linejoin: round; stroke-width: 4.399px;"/>
            <path d="M157.618,341.108h53.991v17.179h-33.189v12.153h29.684v17.296h-29.684v12.037h33.189v17.296h-53.991v-75.961Z" style="fill: none; stroke: #003d43; stroke-linecap: round; stroke-linejoin: round; stroke-width: 4.399px;"/>
            <path d="M234.515,341.108h18.113l20.802,48.147,20.335-48.147h18.113l11.687,75.961h-21.27l-5.142-42.771-15.66,37.98h-16.594l-15.66-38.799-5.259,43.59h-21.152l11.687-75.961Z" style="fill: none; stroke: #003d43; stroke-linecap: round; stroke-linejoin: round; stroke-width: 4.399px;"/>
            <path d="M348.981,413.505c-5.649-3.155-10.108-7.692-13.381-13.614-3.271-5.92-4.908-12.855-4.908-20.802,0-7.868,1.637-14.764,4.908-20.685,3.272-5.92,7.731-10.478,13.381-13.673,5.648-3.194,12.018-4.792,19.107-4.792,7.167,0,13.574,1.539,19.225,4.616,5.647,3.079,10.088,7.558,13.322,13.439,3.231,5.883,4.85,12.913,4.85,21.094,0,7.946-1.636,14.882-4.908,20.802-3.272,5.922-7.733,10.459-13.381,13.614-5.649,3.155-12.019,4.733-19.107,4.733s-13.459-1.578-19.107-4.733ZM376.269,397.962c2.414-1.596,4.342-3.991,5.784-7.187,1.441-3.194,2.162-7.167,2.162-11.92,0-4.362-.701-8.141-2.104-11.336-1.402-3.194-3.33-5.609-5.784-7.246-2.454-1.636-5.2-2.454-8.239-2.454-2.962,0-5.668.8-8.122,2.396-2.454,1.598-4.382,4.013-5.784,7.245-1.402,3.233-2.104,7.11-2.104,11.628,0,4.675.701,8.609,2.104,11.803,1.402,3.196,3.311,5.571,5.726,7.129,2.414,1.56,5.143,2.337,8.181,2.337s5.765-.798,8.181-2.396ZM371.128,316.918h20.567l-18.113,17.646h-16.011l13.557-17.646Z" style="fill: none; stroke: #003d43; stroke-linecap: round; stroke-linejoin: round; stroke-width: 4.399px;"/>
            <path d="M417.404,341.108h29.099c6.466,0,12.056,1.11,16.771,3.33,4.713,2.221,8.315,5.279,10.81,9.174,2.492,3.896,3.739,8.298,3.739,13.206,0,5.142-1.363,9.583-4.09,13.322-2.728,3.739-6.214,6.564-10.459,8.473-4.247,1.91-8.59,2.863-13.03,2.863h-2.571l3.389-3.39c3.816.936,6.896,1.969,9.232,3.098,2.338,1.13,4.4,2.553,6.194,4.265,1.791,1.715,3.739,4.091,5.843,7.129l10.284,14.491h-24.425l-16.595-24.775h-3.856v24.775h-20.334v-75.961ZM450.652,375.875c1.829-.739,3.271-1.85,4.323-3.331,1.052-1.479,1.578-3.349,1.578-5.609,0-2.024-.526-3.758-1.578-5.2-1.052-1.44-2.494-2.53-4.323-3.272-1.832-.739-3.915-1.109-6.253-1.109h-6.661v19.633h6.661c2.338,0,4.421-.369,6.253-1.11Z" style="fill: none; stroke: #003d43; stroke-linecap: round; stroke-linejoin: round; stroke-width: 4.399px;"/>
            <path d="M492.546,341.108h21.27v75.961h-21.27v-75.961Z" style="fill: none; stroke: #003d43; stroke-linecap: round; stroke-linejoin: round; stroke-width: 4.399px;"/>
            <path d="M553.315,341.108h18.113l29.566,75.961h-22.438l-4.09-12.504h-25.594l-4.207,12.504h-20.918l29.566-75.961ZM569.325,388.321l-7.362-22.555-7.596,22.555h14.958Z" style="fill: none; stroke: #003d43; stroke-linecap: round; stroke-linejoin: round; stroke-width: 4.399px;"/>
          </g>
          <g>
            <path d="M54.864,340.375h18.113l20.802,48.147,20.335-48.147h18.113l11.687,75.961h-21.27l-5.142-42.771-15.66,37.98h-16.594l-15.66-38.799-5.259,43.59h-21.152l11.687-75.961Z" style="fill: none; stroke: #003d43; stroke-linecap: round; stroke-linejoin: round; stroke-width: 4.399px;"/>
            <path d="M156.885,340.375h53.991v17.179h-33.189v12.153h29.684v17.296h-29.684v12.037h33.189v17.296h-53.991v-75.961Z" style="fill: none; stroke: #003d43; stroke-linecap: round; stroke-linejoin: round; stroke-width: 4.399px;"/>
            <path d="M233.781,340.375h18.113l20.802,48.147,20.335-48.147h18.113l11.687,75.961h-21.27l-5.142-42.771-15.66,37.98h-16.594l-15.66-38.799-5.259,43.59h-21.152l11.687-75.961Z" style="fill: none; stroke: #003d43; stroke-linecap: round; stroke-linejoin: round; stroke-width: 4.399px;"/>
            <path d="M348.248,412.772c-5.649-3.155-10.108-7.692-13.381-13.614-3.271-5.92-4.908-12.855-4.908-20.802,0-7.868,1.637-14.764,4.908-20.685,3.272-5.92,7.731-10.478,13.381-13.673,5.648-3.194,12.018-4.792,19.107-4.792,7.167,0,13.574,1.539,19.225,4.616,5.647,3.079,10.088,7.558,13.322,13.439,3.231,5.883,4.85,12.913,4.85,21.094,0,7.946-1.636,14.882-4.908,20.802-3.272,5.922-7.733,10.459-13.381,13.614-5.649,3.155-12.019,4.733-19.107,4.733s-13.459-1.578-19.107-4.733ZM375.536,397.229c2.414-1.596,4.342-3.991,5.784-7.187,1.441-3.194,2.162-7.167,2.162-11.92,0-4.362-.701-8.141-2.104-11.336-1.402-3.194-3.33-5.609-5.784-7.246-2.454-1.636-5.2-2.454-8.239-2.454-2.962,0-5.668.8-8.122,2.396-2.454,1.598-4.382,4.013-5.784,7.245-1.402,3.233-2.104,7.11-2.104,11.628,0,4.675.701,8.609,2.104,11.803,1.402,3.196,3.311,5.571,5.726,7.129,2.414,1.56,5.143,2.337,8.181,2.337s5.765-.798,8.181-2.396ZM370.395,316.185h20.567l-18.113,17.646h-16.011l13.557-17.646Z" style="fill: none; stroke: #003d43; stroke-linecap: round; stroke-linejoin: round; stroke-width: 4.399px;"/>
            <path d="M416.671,340.375h29.099c6.466,0,12.056,1.11,16.771,3.33,4.713,2.221,8.315,5.279,10.81,9.174,2.492,3.896,3.739,8.298,3.739,13.206,0,5.142-1.363,9.583-4.09,13.322-2.728,3.739-6.214,6.564-10.459,8.473-4.247,1.91-8.59,2.863-13.03,2.863h-2.571l3.389-3.39c3.816.936,6.896,1.969,9.232,3.098,2.338,1.13,4.4,2.553,6.194,4.265,1.791,1.715,3.739,4.091,5.843,7.129l10.284,14.491h-24.425l-16.595-24.775h-3.856v24.775h-20.334v-75.961ZM449.919,375.142c1.829-.739,3.271-1.85,4.323-3.331,1.052-1.479,1.578-3.349,1.578-5.609,0-2.024-.526-3.758-1.578-5.2-1.052-1.44-2.494-2.53-4.323-3.272-1.832-.739-3.915-1.109-6.253-1.109h-6.661v19.633h6.661c2.338,0,4.421-.369,6.253-1.11Z" style="fill: none; stroke: #003d43; stroke-linecap: round; stroke-linejoin: round; stroke-width: 4.399px;"/>
            <path d="M491.813,340.375h21.27v75.961h-21.27v-75.961Z" style="fill: none; stroke: #003d43; stroke-linecap: round; stroke-linejoin: round; stroke-width: 4.399px;"/>
            <path d="M552.582,340.375h18.113l29.566,75.961h-22.438l-4.09-12.504h-25.594l-4.207,12.504h-20.918l29.566-75.961ZM568.592,387.588l-7.362-22.555-7.596,22.555h14.958Z" style="fill: none; stroke: #003d43; stroke-linecap: round; stroke-linejoin: round; stroke-width: 4.399px;"/>
          </g>
          <g>
            <path d="M54.131,339.642h18.113l20.802,48.147,20.335-48.147h18.113l11.687,75.961h-21.27l-5.142-42.771-15.66,37.98h-16.594l-15.66-38.799-5.259,43.59h-21.152l11.687-75.961Z" style="fill: none; stroke: #003d43; stroke-linecap: round; stroke-linejoin: round; stroke-width: 4.399px;"/>
            <path d="M156.152,339.642h53.991v17.179h-33.189v12.153h29.684v17.296h-29.684v12.037h33.189v17.296h-53.991v-75.961Z" style="fill: none; stroke: #003d43; stroke-linecap: round; stroke-linejoin: round; stroke-width: 4.399px;"/>
            <path d="M233.048,339.642h18.113l20.802,48.147,20.335-48.147h18.113l11.687,75.961h-21.27l-5.142-42.771-15.66,37.98h-16.594l-15.66-38.799-5.259,43.59h-21.152l11.687-75.961Z" style="fill: none; stroke: #003d43; stroke-linecap: round; stroke-linejoin: round; stroke-width: 4.399px;"/>
            <path d="M347.515,412.039c-5.649-3.155-10.108-7.692-13.381-13.614-3.271-5.92-4.908-12.855-4.908-20.802,0-7.868,1.637-14.764,4.908-20.685,3.272-5.92,7.731-10.478,13.381-13.673,5.648-3.194,12.018-4.792,19.107-4.792,7.167,0,13.574,1.539,19.225,4.616,5.647,3.079,10.088,7.558,13.322,13.439,3.231,5.883,4.85,12.913,4.85,21.094,0,7.946-1.636,14.882-4.908,20.802-3.272,5.922-7.733,10.459-13.381,13.614-5.649,3.155-12.019,4.733-19.107,4.733s-13.459-1.578-19.107-4.733ZM374.803,396.496c2.414-1.596,4.342-3.991,5.784-7.187,1.441-3.194,2.162-7.167,2.162-11.92,0-4.362-.701-8.141-2.104-11.336-1.402-3.194-3.33-5.609-5.784-7.246-2.454-1.636-5.2-2.454-8.239-2.454-2.962,0-5.668.8-8.122,2.396-2.454,1.598-4.382,4.013-5.784,7.245-1.402,3.233-2.104,7.11-2.104,11.628,0,4.675.701,8.609,2.104,11.803,1.402,3.196,3.311,5.571,5.726,7.129,2.414,1.56,5.143,2.337,8.181,2.337s5.765-.798,8.181-2.396ZM369.662,315.452h20.567l-18.113,17.646h-16.011l13.557-17.646Z" style="fill: none; stroke: #003d43; stroke-linecap: round; stroke-linejoin: round; stroke-width: 4.399px;"/>
            <path d="M415.938,339.642h29.099c6.466,0,12.056,1.11,16.771,3.33,4.713,2.221,8.315,5.279,10.81,9.174,2.492,3.896,3.739,8.298,3.739,13.206,0,5.142-1.363,9.583-4.09,13.322-2.728,3.739-6.214,6.564-10.459,8.473-4.247,1.91-8.59,2.863-13.03,2.863h-2.571l3.389-3.39c3.816.936,6.896,1.969,9.232,3.098,2.338,1.13,4.4,2.553,6.194,4.265,1.791,1.715,3.739,4.091,5.843,7.129l10.284,14.491h-24.425l-16.595-24.775h-3.856v24.775h-20.334v-75.961ZM449.186,374.409c1.829-.739,3.271-1.85,4.323-3.331,1.052-1.479,1.578-3.349,1.578-5.609,0-2.024-.526-3.758-1.578-5.2-1.052-1.44-2.494-2.53-4.323-3.272-1.832-.739-3.915-1.109-6.253-1.109h-6.661v19.633h6.661c2.338,0,4.421-.369,6.253-1.11Z" style="fill: none; stroke: #003d43; stroke-linecap: round; stroke-linejoin: round; stroke-width: 4.399px;"/>
            <path d="M491.08,339.642h21.27v75.961h-21.27v-75.961Z" style="fill: none; stroke: #003d43; stroke-linecap: round; stroke-linejoin: round; stroke-width: 4.399px;"/>
            <path d="M551.849,339.642h18.113l29.566,75.961h-22.438l-4.09-12.504h-25.594l-4.207,12.504h-20.918l29.566-75.961ZM567.859,386.855l-7.362-22.555-7.596,22.555h14.958Z" style="fill: none; stroke: #003d43; stroke-linecap: round; stroke-linejoin: round; stroke-width: 4.399px;"/>
          </g>
          <g>
            <path d="M53.398,338.909h18.113l20.802,48.147,20.335-48.147h18.113l11.687,75.961h-21.27l-5.142-42.771-15.66,37.98h-16.594l-15.66-38.799-5.259,43.59h-21.152l11.687-75.961Z" style="fill: none; stroke: #003d43; stroke-linecap: round; stroke-linejoin: round; stroke-width: 4.399px;"/>
            <path d="M155.419,338.909h53.991v17.179h-33.189v12.153h29.684v17.296h-29.684v12.037h33.189v17.296h-53.991v-75.961Z" style="fill: none; stroke: #003d43; stroke-linecap: round; stroke-linejoin: round; stroke-width: 4.399px;"/>
            <path d="M232.315,338.909h18.113l20.802,48.147,20.335-48.147h18.113l11.687,75.961h-21.27l-5.142-42.771-15.66,37.98h-16.594l-15.66-38.799-5.259,43.59h-21.152l11.687-75.961Z" style="fill: none; stroke: #003d43; stroke-linecap: round; stroke-linejoin: round; stroke-width: 4.399px;"/>
            <path d="M346.782,411.305c-5.649-3.155-10.108-7.692-13.381-13.614-3.271-5.92-4.908-12.855-4.908-20.802,0-7.868,1.637-14.764,4.908-20.685,3.272-5.92,7.731-10.478,13.381-13.673,5.648-3.194,12.018-4.792,19.107-4.792,7.167,0,13.574,1.539,19.225,4.616,5.647,3.079,10.088,7.558,13.322,13.439,3.231,5.883,4.85,12.913,4.85,21.094,0,7.946-1.636,14.882-4.908,20.802-3.272,5.922-7.733,10.459-13.381,13.614-5.649,3.155-12.019,4.733-19.107,4.733s-13.459-1.578-19.107-4.733ZM374.07,395.762c2.414-1.596,4.342-3.991,5.784-7.187,1.441-3.194,2.162-7.167,2.162-11.92,0-4.362-.701-8.141-2.104-11.336-1.402-3.194-3.33-5.609-5.784-7.246-2.454-1.636-5.2-2.454-8.239-2.454-2.962,0-5.668.8-8.122,2.396-2.454,1.598-4.382,4.013-5.784,7.245-1.402,3.233-2.104,7.11-2.104,11.628,0,4.675.701,8.609,2.104,11.803,1.402,3.196,3.311,5.571,5.726,7.129,2.414,1.56,5.143,2.337,8.181,2.337s5.765-.798,8.181-2.396ZM368.928,314.718h20.567l-18.113,17.646h-16.011l13.557-17.646Z" style="fill: none; stroke: #003d43; stroke-linecap: round; stroke-linejoin: round; stroke-width: 4.399px;"/>
            <path d="M415.205,338.909h29.099c6.466,0,12.056,1.11,16.771,3.33,4.713,2.221,8.315,5.279,10.81,9.174,2.492,3.896,3.739,8.298,3.739,13.206,0,5.142-1.363,9.583-4.09,13.322-2.728,3.739-6.214,6.564-10.459,8.473-4.247,1.91-8.59,2.863-13.03,2.863h-2.571l3.389-3.39c3.816.936,6.896,1.969,9.232,3.098,2.338,1.13,4.4,2.553,6.194,4.265,1.791,1.715,3.739,4.091,5.843,7.129l10.284,14.491h-24.425l-16.595-24.775h-3.856v24.775h-20.334v-75.961ZM448.453,373.676c1.829-.739,3.271-1.85,4.323-3.331,1.052-1.479,1.578-3.349,1.578-5.609,0-2.024-.526-3.758-1.578-5.2-1.052-1.44-2.494-2.53-4.323-3.272-1.832-.739-3.915-1.109-6.253-1.109h-6.661v19.633h6.661c2.338,0,4.421-.369,6.253-1.11Z" style="fill: none; stroke: #003d43; stroke-linecap: round; stroke-linejoin: round; stroke-width: 4.399px;"/>
            <path d="M490.346,338.909h21.27v75.961h-21.27v-75.961Z" style="fill: none; stroke: #003d43; stroke-linecap: round; stroke-linejoin: round; stroke-width: 4.399px;"/>
            <path d="M551.116,338.909h18.113l29.566,75.961h-22.438l-4.09-12.504h-25.594l-4.207,12.504h-20.918l29.566-75.961ZM567.126,386.122l-7.362-22.555-7.596,22.555h14.958Z" style="fill: none; stroke: #003d43; stroke-linecap: round; stroke-linejoin: round; stroke-width: 4.399px;"/>
          </g>
          <g>
            <path d="M52.665,338.176h18.113l20.802,48.147,20.335-48.147h18.113l11.687,75.961h-21.27l-5.142-42.771-15.66,37.98h-16.594l-15.66-38.799-5.259,43.59h-21.152l11.687-75.961Z" style="fill: none; stroke: #003d43; stroke-linecap: round; stroke-linejoin: round; stroke-width: 4.399px;"/>
            <path d="M154.686,338.176h53.991v17.179h-33.189v12.153h29.684v17.296h-29.684v12.037h33.189v17.296h-53.991v-75.961Z" style="fill: none; stroke: #003d43; stroke-linecap: round; stroke-linejoin: round; stroke-width: 4.399px;"/>
            <path d="M231.582,338.176h18.113l20.802,48.147,20.335-48.147h18.113l11.687,75.961h-21.27l-5.142-42.771-15.66,37.98h-16.594l-15.66-38.799-5.259,43.59h-21.152l11.687-75.961Z" style="fill: none; stroke: #003d43; stroke-linecap: round; stroke-linejoin: round; stroke-width: 4.399px;"/>
            <path d="M346.049,410.572c-5.649-3.155-10.108-7.692-13.381-13.614-3.271-5.92-4.908-12.855-4.908-20.802,0-7.868,1.637-14.764,4.908-20.685,3.272-5.92,7.731-10.478,13.381-13.673,5.648-3.194,12.018-4.792,19.107-4.792,7.167,0,13.574,1.539,19.225,4.616,5.647,3.079,10.088,7.558,13.322,13.439,3.231,5.883,4.85,12.913,4.85,21.094,0,7.946-1.636,14.882-4.908,20.802-3.272,5.922-7.733,10.459-13.381,13.614-5.649,3.155-12.019,4.733-19.107,4.733s-13.459-1.578-19.107-4.733ZM373.337,395.029c2.414-1.596,4.342-3.991,5.784-7.187,1.441-3.194,2.162-7.167,2.162-11.92,0-4.362-.701-8.141-2.104-11.336-1.402-3.194-3.33-5.609-5.784-7.246-2.454-1.636-5.2-2.454-8.239-2.454-2.962,0-5.668.8-8.122,2.396-2.454,1.598-4.382,4.013-5.784,7.245-1.402,3.233-2.104,7.11-2.104,11.628,0,4.675.701,8.609,2.104,11.803,1.402,3.196,3.311,5.571,5.726,7.129,2.414,1.56,5.143,2.337,8.181,2.337s5.765-.798,8.181-2.396ZM368.195,313.985h20.567l-18.113,17.646h-16.011l13.557-17.646Z" style="fill: none; stroke: #003d43; stroke-linecap: round; stroke-linejoin: round; stroke-width: 4.399px;"/>
            <path d="M414.472,338.176h29.099c6.466,0,12.056,1.11,16.771,3.33,4.713,2.221,8.315,5.279,10.81,9.174,2.492,3.896,3.739,8.298,3.739,13.206,0,5.142-1.363,9.583-4.09,13.322-2.728,3.739-6.214,6.564-10.459,8.473-4.247,1.91-8.59,2.863-13.03,2.863h-2.571l3.389-3.39c3.816.936,6.896,1.969,9.232,3.098,2.338,1.13,4.4,2.553,6.194,4.265,1.791,1.715,3.739,4.091,5.843,7.129l10.284,14.491h-24.425l-16.595-24.775h-3.856v24.775h-20.334v-75.961ZM447.72,372.942c1.829-.739,3.271-1.85,4.323-3.331,1.052-1.479,1.578-3.349,1.578-5.609,0-2.024-.526-3.758-1.578-5.2-1.052-1.44-2.494-2.53-4.323-3.272-1.832-.739-3.915-1.109-6.253-1.109h-6.661v19.633h6.661c2.338,0,4.421-.369,6.253-1.11Z" style="fill: none; stroke: #003d43; stroke-linecap: round; stroke-linejoin: round; stroke-width: 4.399px;"/>
            <path d="M489.613,338.176h21.27v75.961h-21.27v-75.961Z" style="fill: none; stroke: #003d43; stroke-linecap: round; stroke-linejoin: round; stroke-width: 4.399px;"/>
            <path d="M550.383,338.176h18.113l29.566,75.961h-22.438l-4.09-12.504h-25.594l-4.207,12.504h-20.918l29.566-75.961ZM566.393,385.389l-7.362-22.555-7.596,22.555h14.958Z" style="fill: none; stroke: #003d43; stroke-linecap: round; stroke-linejoin: round; stroke-width: 4.399px;"/>
          </g>
        </g>
        <g>
          <path d="M52.665,338.176h18.113l20.802,48.147,20.335-48.147h18.113l11.687,75.961h-21.27l-5.142-42.771-15.66,37.98h-16.594l-15.66-38.799-5.259,43.59h-21.152l11.687-75.961Z" style="fill: none; stroke: #003d43; stroke-linecap: round; stroke-linejoin: round; stroke-width: 4.399px;"/>
          <path d="M154.686,338.176h53.991v17.179h-33.189v12.153h29.684v17.296h-29.684v12.037h33.189v17.296h-53.991v-75.961Z" style="fill: none; stroke: #003d43; stroke-linecap: round; stroke-linejoin: round; stroke-width: 4.399px;"/>
          <path d="M231.582,338.176h18.113l20.802,48.147,20.335-48.147h18.113l11.687,75.961h-21.27l-5.142-42.771-15.66,37.98h-16.594l-15.66-38.799-5.259,43.59h-21.152l11.687-75.961Z" style="fill: none; stroke: #003d43; stroke-linecap: round; stroke-linejoin: round; stroke-width: 4.399px;"/>
          <path d="M346.049,410.572c-5.649-3.155-10.108-7.692-13.381-13.614-3.271-5.92-4.908-12.855-4.908-20.802,0-7.868,1.637-14.764,4.908-20.685,3.272-5.92,7.731-10.478,13.381-13.673,5.648-3.194,12.018-4.792,19.107-4.792,7.167,0,13.574,1.539,19.225,4.616,5.647,3.079,10.088,7.558,13.322,13.439,3.231,5.883,4.85,12.913,4.85,21.094,0,7.946-1.636,14.882-4.908,20.802-3.272,5.922-7.733,10.459-13.381,13.614-5.649,3.155-12.019,4.733-19.107,4.733s-13.459-1.578-19.107-4.733ZM373.337,395.029c2.414-1.596,4.342-3.991,5.784-7.187,1.441-3.194,2.162-7.167,2.162-11.92,0-4.362-.701-8.141-2.104-11.336-1.402-3.194-3.33-5.609-5.784-7.246-2.454-1.636-5.2-2.454-8.239-2.454-2.962,0-5.668.8-8.122,2.396-2.454,1.598-4.382,4.013-5.784,7.245-1.402,3.233-2.104,7.11-2.104,11.628,0,4.675.701,8.609,2.104,11.803,1.402,3.196,3.311,5.571,5.726,7.129,2.414,1.56,5.143,2.337,8.181,2.337s5.765-.798,8.181-2.396ZM368.195,313.985h20.567l-18.113,17.646h-16.011l13.557-17.646Z" style="fill: none; stroke: #003d43; stroke-linecap: round; stroke-linejoin: round; stroke-width: 4.399px;"/>
          <path d="M414.472,338.176h29.099c6.466,0,12.056,1.11,16.771,3.33,4.713,2.221,8.315,5.279,10.81,9.174,2.492,3.896,3.739,8.298,3.739,13.206,0,5.142-1.363,9.583-4.09,13.322-2.728,3.739-6.214,6.564-10.459,8.473-4.247,1.91-8.59,2.863-13.03,2.863h-2.571l3.389-3.39c3.816.936,6.896,1.969,9.232,3.098,2.338,1.13,4.4,2.553,6.194,4.265,1.791,1.715,3.739,4.091,5.843,7.129l10.284,14.491h-24.425l-16.595-24.775h-3.856v24.775h-20.334v-75.961ZM447.72,372.942c1.829-.739,3.271-1.85,4.323-3.331,1.052-1.479,1.578-3.349,1.578-5.609,0-2.024-.526-3.758-1.578-5.2-1.052-1.44-2.494-2.53-4.323-3.272-1.832-.739-3.915-1.109-6.253-1.109h-6.661v19.633h6.661c2.338,0,4.421-.369,6.253-1.11Z" style="fill: none; stroke: #003d43; stroke-linecap: round; stroke-linejoin: round; stroke-width: 4.399px;"/>
          <path d="M489.613,338.176h21.27v75.961h-21.27v-75.961Z" style="fill: none; stroke: #003d43; stroke-linecap: round; stroke-linejoin: round; stroke-width: 4.399px;"/>
          <path d="M550.383,338.176h18.113l29.566,75.961h-22.438l-4.09-12.504h-25.594l-4.207,12.504h-20.918l29.566-75.961ZM566.393,385.389l-7.362-22.555-7.596,22.555h14.958Z" style="fill: none; stroke: #003d43; stroke-linecap: round; stroke-linejoin: round; stroke-width: 4.399px;"/>
        </g>
        <g>
          <path d="M52.665,338.176h18.113l20.802,48.147,20.335-48.147h18.113l11.687,75.961h-21.27l-5.142-42.771-15.66,37.98h-16.594l-15.66-38.799-5.259,43.59h-21.152l11.687-75.961Z"/>
          <path d="M154.686,338.176h53.991v17.179h-33.189v12.153h29.684v17.296h-29.684v12.037h33.189v17.296h-53.991v-75.961Z"/>
          <path d="M231.582,338.176h18.113l20.802,48.147,20.335-48.147h18.113l11.687,75.961h-21.27l-5.142-42.771-15.66,37.98h-16.594l-15.66-38.799-5.259,43.59h-21.152l11.687-75.961Z"/>
          <path d="M346.049,410.572c-5.649-3.155-10.108-7.692-13.381-13.614-3.271-5.92-4.908-12.855-4.908-20.802,0-7.868,1.637-14.764,4.908-20.685,3.272-5.92,7.731-10.478,13.381-13.673,5.648-3.194,12.018-4.792,19.107-4.792,7.167,0,13.574,1.539,19.225,4.616,5.647,3.079,10.088,7.558,13.322,13.439,3.231,5.883,4.85,12.913,4.85,21.094,0,7.946-1.636,14.882-4.908,20.802-3.272,5.922-7.733,10.459-13.381,13.614-5.649,3.155-12.019,4.733-19.107,4.733s-13.459-1.578-19.107-4.733ZM373.337,395.029c2.414-1.596,4.342-3.991,5.784-7.187,1.441-3.194,2.162-7.167,2.162-11.92,0-4.362-.701-8.141-2.104-11.336-1.402-3.194-3.33-5.609-5.784-7.246-2.454-1.636-5.2-2.454-8.239-2.454-2.962,0-5.668.8-8.122,2.396-2.454,1.598-4.382,4.013-5.784,7.245-1.402,3.233-2.104,7.11-2.104,11.628,0,4.675.701,8.609,2.104,11.803,1.402,3.196,3.311,5.571,5.726,7.129,2.414,1.56,5.143,2.337,8.181,2.337s5.765-.798,8.181-2.396ZM368.195,313.985h20.567l-18.113,17.646h-16.011l13.557-17.646Z"/>
          <path d="M414.472,338.176h29.099c6.466,0,12.056,1.11,16.771,3.33,4.713,2.221,8.315,5.279,10.81,9.174,2.492,3.896,3.739,8.298,3.739,13.206,0,5.142-1.363,9.583-4.09,13.322-2.728,3.739-6.214,6.564-10.459,8.473-4.247,1.91-8.59,2.863-13.03,2.863h-2.571l3.389-3.39c3.816.936,6.896,1.969,9.232,3.098,2.338,1.13,4.4,2.553,6.194,4.265,1.791,1.715,3.739,4.091,5.843,7.129l10.284,14.491h-24.425l-16.595-24.775h-3.856v24.775h-20.334v-75.961ZM447.72,372.942c1.829-.739,3.271-1.85,4.323-3.331,1.052-1.479,1.578-3.349,1.578-5.609,0-2.024-.526-3.758-1.578-5.2-1.052-1.44-2.494-2.53-4.323-3.272-1.832-.739-3.915-1.109-6.253-1.109h-6.661v19.633h6.661c2.338,0,4.421-.369,6.253-1.11Z"/>
          <path d="M489.613,338.176h21.27v75.961h-21.27v-75.961Z"/>
          <path d="M550.383,338.176h18.113l29.566,75.961h-22.438l-4.09-12.504h-25.594l-4.207,12.504h-20.918l29.566-75.961ZM566.393,385.389l-7.362-22.555-7.596,22.555h14.958Z"/>
        </g>
        <g>
          <path d="M52.665,338.176h18.113l20.802,48.147,20.335-48.147h18.113l11.687,75.961h-21.27l-5.142-42.771-15.66,37.98h-16.594l-15.66-38.799-5.259,43.59h-21.152l11.687-75.961Z" style="fill: #bfd730;"/>
          <path d="M154.686,338.176h53.991v17.179h-33.189v12.153h29.684v17.296h-29.684v12.037h33.189v17.296h-53.991v-75.961Z" style="fill: #bfd730;"/>
          <path d="M231.582,338.176h18.113l20.802,48.147,20.335-48.147h18.113l11.687,75.961h-21.27l-5.142-42.771-15.66,37.98h-16.594l-15.66-38.799-5.259,43.59h-21.152l11.687-75.961Z" style="fill: #bfd730;"/>
          <path d="M346.049,410.572c-5.649-3.155-10.108-7.692-13.381-13.614-3.271-5.92-4.908-12.855-4.908-20.802,0-7.868,1.637-14.764,4.908-20.685,3.272-5.92,7.731-10.478,13.381-13.673,5.648-3.194,12.018-4.792,19.107-4.792,7.167,0,13.574,1.539,19.225,4.616,5.647,3.079,10.088,7.558,13.322,13.439,3.231,5.883,4.85,12.913,4.85,21.094,0,7.946-1.636,14.882-4.908,20.802-3.272,5.922-7.733,10.459-13.381,13.614-5.649,3.155-12.019,4.733-19.107,4.733s-13.459-1.578-19.107-4.733ZM373.337,395.029c2.414-1.596,4.342-3.991,5.784-7.187,1.441-3.194,2.162-7.167,2.162-11.92,0-4.362-.701-8.141-2.104-11.336-1.402-3.194-3.33-5.609-5.784-7.246-2.454-1.636-5.2-2.454-8.239-2.454-2.962,0-5.668.8-8.122,2.396-2.454,1.598-4.382,4.013-5.784,7.245-1.402,3.233-2.104,7.11-2.104,11.628,0,4.675.701,8.609,2.104,11.803,1.402,3.196,3.311,5.571,5.726,7.129,2.414,1.56,5.143,2.337,8.181,2.337s5.765-.798,8.181-2.396ZM368.195,313.985h20.567l-18.113,17.646h-16.011l13.557-17.646Z" style="fill: #bfd730;"/>
          <path d="M414.472,338.176h29.099c6.466,0,12.056,1.11,16.771,3.33,4.713,2.221,8.315,5.279,10.81,9.174,2.492,3.896,3.739,8.298,3.739,13.206,0,5.142-1.363,9.583-4.09,13.322-2.728,3.739-6.214,6.564-10.459,8.473-4.247,1.91-8.59,2.863-13.03,2.863h-2.571l3.389-3.39c3.816.936,6.896,1.969,9.232,3.098,2.338,1.13,4.4,2.553,6.194,4.265,1.791,1.715,3.739,4.091,5.843,7.129l10.284,14.491h-24.425l-16.595-24.775h-3.856v24.775h-20.334v-75.961ZM447.72,372.942c1.829-.739,3.271-1.85,4.323-3.331,1.052-1.479,1.578-3.349,1.578-5.609,0-2.024-.526-3.758-1.578-5.2-1.052-1.44-2.494-2.53-4.323-3.272-1.832-.739-3.915-1.109-6.253-1.109h-6.661v19.633h6.661c2.338,0,4.421-.369,6.253-1.11Z" style="fill: #bfd730;"/>
          <path d="M489.613,338.176h21.27v75.961h-21.27v-75.961Z" style="fill: #bfd730;"/>
          <path d="M550.383,338.176h18.113l29.566,75.961h-22.438l-4.09-12.504h-25.594l-4.207,12.504h-20.918l29.566-75.961ZM566.393,385.389l-7.362-22.555-7.596,22.555h14.958Z" style="fill: #bfd730;"/>
        </g>
      </g>
      <g>
        <path d="M77.37,273.372c-2.671-1.447-4.618-3.362-5.841-5.744-1.222-2.38-1.834-5.021-1.834-7.916,0-3.862.949-6.773,2.848-8.737,1.898-1.963,4.104-2.945,6.613-2.945,1.223,0,2.091.21,2.607.628.514.419.643,1.175.386,2.269-.579,2.896-.869,5.503-.869,7.82,0,2.447.579,4.361,1.738,5.744,1.158,1.385,2.767,2.076,4.827,2.076,2.445,0,4.537-1.255,6.275-3.766,1.737-2.51,3.024-6.242,3.861-11.199l5.6-33.5c.515-3.025,1.497-5.422,2.944-7.193,1.448-1.77,3.813-2.654,7.097-2.654,2.059,0,3.394.402,4.006,1.206.611.806.756,2.206.435,4.2l-5.31,33.404c-1.609,10.233-4.537,17.539-8.785,21.915s-9.72,6.565-16.413,6.565c-4.119,0-7.515-.725-10.186-2.173Z" style="fill: #fff;"/>
        <path d="M128.49,271.635c-2.833-1.642-5.005-3.925-6.517-6.854-1.514-2.928-2.269-6.291-2.269-10.089,0-4.956,1.045-9.51,3.138-13.661,2.091-4.151,4.842-6.999,8.254-8.544.836-3.09,2.525-5.535,5.068-7.338,2.542-1.801,5.583-2.703,9.124-2.703,3.218,0,6.082.854,8.592,2.559,2.511,1.706,4.505,4.071,5.986,7.096,1.479,3.026,2.283,6.469,2.413,10.33,2.703-.192,5.165-.755,7.386-1.689,2.221-.932,4.553-2.621,7-5.068.386-.386.835-.772,1.352-1.158.321-.193.643-.29.965-.29.515,0,.917.307,1.207.917.29.613.435,1.465.435,2.559,0,1.417-.227,2.72-.676,3.91-.451,1.191-1.224,2.365-2.317,3.524-1.737,1.803-3.975,3.186-6.71,4.151-2.736.965-5.841,1.544-9.316,1.737-.772,4.312-2.172,8.206-4.199,11.682s-4.651,6.244-7.868,8.303c-3.22,2.06-6.92,3.09-11.103,3.09-3.799,0-7.113-.82-9.944-2.462ZM144.082,261.787c1.512-1.062,2.831-2.542,3.958-4.44,1.126-1.898,1.946-4.039,2.462-6.421-2.382-.063-4.619-.386-6.71-.965-2.092-.58-3.942-1.318-5.551-2.221-1.609-.9-2.993-1.963-4.151-3.187-.516,1.417-.902,2.849-1.158,4.297-.259,1.448-.387,2.913-.387,4.393,0,2.896.546,5.31,1.642,7.241,1.094,1.931,2.767,2.896,5.021,2.896,1.737,0,3.362-.53,4.875-1.593ZM147.992,235.479c-1.481-1.673-3.154-2.51-5.021-2.51-.902,0-1.578.193-2.027.579-.451.387-.676.966-.676,1.738,0,1.609.997,3.041,2.993,4.296,1.994,1.255,4.537,2.141,7.627,2.655-.451-2.832-1.417-5.084-2.896-6.759Z" style="fill: #fff;"/>
        <path d="M187.431,293.067c-1.514-1.771-2.269-3.975-2.269-6.613,0-3.605,1.142-6.661,3.427-9.172,2.284-2.51,5.197-4.794,8.737-6.854.643-.386,1.287-.772,1.931-1.158.129-1.352.225-2.67.29-3.958.128-1.932.225-3.829.289-5.696-2.124,3.733-4.554,6.533-7.289,8.399-2.736,1.867-5.647,2.8-8.737,2.8-4.055,0-7.354-1.48-9.896-4.441-2.543-2.96-3.813-7.111-3.813-12.454,0-4.634.933-9.316,2.8-14.047,1.866-4.731,4.505-8.656,7.917-11.778,3.41-3.121,7.24-4.683,11.488-4.683,2.896,0,5.277.74,7.145,2.221,1.866,1.481,3.249,3.509,4.151,6.082.643-2.317,1.801-4.104,3.476-5.358,1.673-1.255,3.604-1.883,5.793-1.883,1.158,0,1.994.193,2.51.58.515.386.772.998.772,1.834,0,.516-.161,1.416-.482,2.703-1.481,6.115-2.672,11.602-3.572,16.461-.902,4.86-1.352,8.867-1.352,12.02,0,1.675-.033,2.93-.097,3.766,3.99-2.832,7.53-5.842,10.62-9.027,3.089-3.186,5.31-6.387,6.661-9.606.321-.835.579-1.366.772-1.593.193-.225.482-.338.869-.338.835,0,1.511.403,2.027,1.207.514.806.772,1.883.772,3.234,0,3.991-2.093,8.013-6.275,12.067-4.185,4.056-9.495,8.175-15.93,12.358-.902,8.688-2.769,15.124-5.6,19.309-2.833,4.183-6.341,6.275-10.523,6.275-2.896,0-5.102-.886-6.613-2.655ZM193.657,255.318c2.253-3.056,4.505-7.675,6.759-13.854-.323-2.188-1.062-3.91-2.221-5.165-1.159-1.255-2.544-1.883-4.151-1.883-2.124,0-3.992,1.03-5.6,3.09-1.609,2.061-2.849,4.585-3.717,7.578-.869,2.993-1.304,5.841-1.304,8.544,0,2.124.305,3.702.917,4.731.611,1.03,1.528,1.544,2.752,1.544,2.124,0,4.311-1.527,6.564-4.586ZM197.809,284.812c.515-1.416.966-3.83,1.352-7.24-1.416,1.094-2.574,2.284-3.476,3.572-.901,1.286-1.352,2.573-1.352,3.861,0,.643.129,1.126.387,1.448.256.321.61.482,1.062.482.836,0,1.512-.709,2.027-2.124Z" style="fill: #fff;"/>
        <path d="M233.915,271.635c-2.833-1.642-5.005-3.925-6.517-6.854-1.514-2.928-2.269-6.291-2.269-10.089,0-4.956,1.045-9.51,3.138-13.661,2.091-4.151,4.842-6.999,8.254-8.544.836-3.09,2.525-5.535,5.068-7.338,2.542-1.801,5.583-2.703,9.124-2.703,3.218,0,6.082.854,8.592,2.559,2.511,1.706,4.505,4.071,5.986,7.096,1.479,3.026,2.283,6.469,2.413,10.33,2.703-.192,5.165-.755,7.386-1.689,2.221-.932,4.553-2.621,7-5.068.386-.386.835-.772,1.352-1.158.321-.193.643-.29.965-.29.515,0,.917.307,1.207.917.29.613.435,1.465.435,2.559,0,1.417-.227,2.72-.676,3.91-.451,1.191-1.224,2.365-2.317,3.524-1.737,1.803-3.975,3.186-6.71,4.151-2.736.965-5.841,1.544-9.316,1.737-.772,4.312-2.172,8.206-4.199,11.682s-4.651,6.244-7.868,8.303c-3.22,2.06-6.92,3.09-11.103,3.09-3.799,0-7.113-.82-9.944-2.462ZM249.507,261.787c1.512-1.062,2.831-2.542,3.958-4.44,1.126-1.898,1.946-4.039,2.462-6.421-2.382-.063-4.619-.386-6.71-.965-2.092-.58-3.942-1.318-5.551-2.221-1.609-.9-2.993-1.963-4.151-3.187-.516,1.417-.902,2.849-1.158,4.297-.259,1.448-.387,2.913-.387,4.393,0,2.896.546,5.31,1.642,7.241,1.094,1.931,2.767,2.896,5.021,2.896,1.737,0,3.362-.53,4.875-1.593ZM253.417,235.479c-1.481-1.673-3.154-2.51-5.021-2.51-.902,0-1.578.193-2.027.579-.451.387-.676.966-.676,1.738,0,1.609.997,3.041,2.993,4.296,1.994,1.255,4.537,2.141,7.627,2.655-.451-2.832-1.417-5.084-2.896-6.759Z" style="fill: #fff;"/>
      </g>
      <g>
        <path d="M267.758,311.721c-1.662-2.028-2.493-4.812-2.493-8.353,0-3.322.657-6.743,1.975-10.261,1.316-3.518,3.227-6.442,5.729-8.772,2.503-2.331,5.46-3.496,8.87-3.496,1.251,0,2.384.259,3.398.776,1.014.518,1.91,1.253,2.688,2.201.647-3.021,1.272-6.021,1.877-8.999.561-2.46,1.101-4.898,1.619-7.315.215-.733.463-1.252.744-1.554.28-.302.744-.454,1.392-.454,1.813,0,3.183.551,4.111,1.651.928,1.101,1.393,2.687,1.393,4.759s-.379,4.705-1.134,7.898c-.755,3.194-1.845,6.453-3.27,9.775-.432,2.634-.767,5.126-1.003,7.479-.238,2.353-.356,4.154-.356,5.405,0,1.642.204,2.893.615,3.756.41.863.981,1.294,1.716,1.294,1.554,0,3.204-1.165,4.952-3.496,1.748-2.33,3.442-5.697,5.083-10.1.129-.388.269-.647.421-.776.15-.13.355-.194.614-.194.475,0,.885.281,1.23.842.345.562.518,1.382.518,2.46,0,1.598-.626,3.896-1.877,6.895-1.253,3.001-2.989,5.655-5.212,7.964-2.224,2.31-4.78,3.464-7.672,3.464-2.288,0-4.198-.799-5.729-2.396-1.533-1.597-2.299-3.82-2.299-6.669v-.647c-1.727,3.195-3.571,5.644-5.535,7.349-1.965,1.705-3.981,2.558-6.054,2.558-2.547,0-4.651-1.014-6.312-3.043ZM279.8,305.182c1.101-1.166,2.189-2.87,3.269-5.115,1.079-2.243,2.072-4.92,2.979-8.027-.604-1.122-1.263-1.964-1.975-2.525-.712-.561-1.544-.842-2.492-.842-1.554,0-2.893.68-4.015,2.04-1.122,1.359-1.964,3.086-2.524,5.179-.562,2.095-.842,4.22-.842,6.377,0,1.598.216,2.774.647,3.529.431.755,1.101,1.133,2.007,1.133.863,0,1.846-.583,2.946-1.748Z" style="fill: #fff;"/>
        <path d="M306.148,311.947c-1.618-1.964-2.428-4.889-2.428-8.772,0-3.237.722-6.582,2.169-10.035,1.445-3.453,3.431-6.322,5.956-8.611,2.524-2.287,5.341-3.431,8.449-3.431,1.898,0,3.388.432,4.467,1.295,1.078.863,1.855,2.05,2.331,3.561.604-1.338,1.413-2.331,2.428-2.979,1.014-.647,2.341-.971,3.981-.971.518,0,.949.108,1.295.323.345.217.518.541.518.972,0,.562-.087,1.209-.259,1.942-.906,4.359-1.598,8.06-2.071,11.103-.476,3.043-.713,5.364-.713,6.96,0,1.382.184,2.428.551,3.141.366.712.96,1.067,1.78,1.067.949,0,1.931-.507,2.945-1.521,1.014-1.013,2.061-2.534,3.141-4.563,1.078-2.028,2.179-4.532,3.302-7.511.129-.388.269-.647.421-.776.15-.13.355-.194.615-.194.474,0,.884.281,1.229.842.345.562.519,1.382.519,2.46,0,1.598-.605,3.896-1.813,6.895-1.209,3.001-2.892,5.655-5.05,7.964-2.158,2.31-4.575,3.464-7.251,3.464-2.201,0-4.101-.787-5.697-2.363-1.598-1.575-2.396-3.787-2.396-6.636v-.519c-1.598,3.107-3.41,5.525-5.438,7.251-2.029,1.727-4.101,2.59-6.215,2.59-2.893,0-5.147-.981-6.766-2.945ZM319.906,303.66c1.64-2.567,3.279-6.14,4.92-10.715-.259-1.338-.723-2.428-1.392-3.27-.67-.842-1.63-1.263-2.881-1.263-1.339,0-2.612.767-3.82,2.299-1.209,1.532-2.18,3.421-2.913,5.665-.734,2.244-1.101,4.381-1.101,6.409,0,1.424.236,2.568.712,3.432.475.863,1.166,1.294,2.072,1.294,1.295,0,2.762-1.283,4.402-3.852Z" style="fill: #fff;"/>
      </g>
    </g>
  </g>
</svg>