<?xml version="1.0" encoding="UTF-8"?>
<svg id="c" data-name="Layer 1" xmlns="http://www.w3.org/2000/svg" viewBox="0 0 636 636">
  <rect width="636" height="636" style="fill: #003d43;"/>
  <path d="M252.45,347.406l52.638,91.123c1.294,1.922,2.926,3.529,5.039,4.747,2.426,1.423,5.113,2.105,7.808,2.105,5.144,0,10.128-2.579,13.106-7.12l71.501-123.82h-131.053l-19.039,32.965h0Z" style="fill: #004c54; fill-rule: evenodd;"/>
  <path d="M447.825,190.62h-142.975l65.592,113.669h37.949l52.7-91.307c.95-2.004,1.554-4.272,1.554-6.699,0-8.336-6.591-15.135-14.821-15.664h0Z" style="fill: #004c54; fill-rule: evenodd;"/>
  <path d="M293.093,190.62h-105.286c-2.244.184-4.54.844-6.646,2.051-5.013,2.903-7.806,8.177-7.806,13.612,0,2.373.55,4.745,1.638,7.022l71.577,123.918,65.592-113.556-19.069-33.047h0Z" style="fill: #004c54; fill-rule: evenodd;"/>
</svg>